<svg xmlns="http://www.w3.org/2000/svg" viewBox="0 0 640 360" width="640" height="360">
  <defs>
    <linearGradient id="metal" x1="0%" y1="0%" x2="0%" y2="100%">
      <stop offset="0%" stop-color="#6b7280"/>
      <stop offset="100%" stop-color="#374151"/>
    </linearGradient>
    <radialGradient id="hole" cx="50%" cy="50%" r="50%">
      <stop offset="0%" stop-color="#111827"/>
      <stop offset="100%" stop-color="#1f2937"/>
    </radialGradient>
  </defs>
  <rect width="640" height="360" fill="#111827"/>
  <text x="20" y="32" fill="#9ca3af" font-family="monospace" font-size="14">Demo sample — stylized porosity (not a real weld photo)</text>
  <rect x="40" y="80" width="560" height="200" rx="4" fill="url(#metal)"/>
  <path d="M60 180 Q120 160 180 175 T300 170 T420 185 T580 175" fill="none" stroke="#d97706" stroke-width="18" stroke-linecap="round" opacity="0.9"/>
  <path d="M60 180 Q120 160 180 175 T300 170 T420 185 T580 175" fill="none" stroke="#fbbf24" stroke-width="8" stroke-linecap="round" opacity="0.5"/>
  <circle cx="140" cy="168" r="6" fill="url(#hole)"/>
  <circle cx="195" cy="182" r="4" fill="url(#hole)"/>
  <circle cx="260" cy="165" r="5" fill="url(#hole)"/>
  <circle cx="310" cy="178" r="7" fill="url(#hole)"/>
  <circle cx="370" cy="170" r="4" fill="url(#hole)"/>
  <circle cx="430" cy="185" r="5" fill="url(#hole)"/>
  <circle cx="490" cy="172" r="6" fill="url(#hole)"/>
  <circle cx="540" cy="180" r="4" fill="url(#hole)"/>
  <text x="40" y="320" fill="#f59e0b" font-family="sans-serif" font-size="13">Wire weld bead with visible porosity (cavities in bead)</text>
  <text x="40" y="342" fill="#6b7280" font-family="sans-serif" font-size="11">Compare with owner-manual.pdf p.37 — Wire Weld Porosity exemplar</text>
</svg>
